<mxfile host="app.diagrams.net" agent="Mozilla/5.0 (Windows NT 10.0; Win64; x64) AppleWebKit/537.36 (KHTML, like Gecko) Chrome/132.0.0.0 Safari/537.36" version="26.0.9">
  <diagram name="Page-1" id="QCHZxGdK7dInkrTfqI55">
    <mxGraphModel dx="880" dy="413" grid="1" gridSize="10" guides="1" tooltips="1" connect="1" arrows="1" fold="1" page="1" pageScale="1" pageWidth="850" pageHeight="1100" math="0" shadow="0">
      <root>
        <mxCell id="0" />
        <mxCell id="1" parent="0" />
        <mxCell id="UbfLk0bQusmyIFXjgGm9-8" value="" style="edgeStyle=orthogonalEdgeStyle;rounded=0;orthogonalLoop=1;jettySize=auto;html=1;entryX=0;entryY=0.25;entryDx=0;entryDy=0;" edge="1" parent="1" source="UbfLk0bQusmyIFXjgGm9-1" target="UbfLk0bQusmyIFXjgGm9-5">
          <mxGeometry relative="1" as="geometry">
            <mxPoint x="395" y="225" as="targetPoint" />
          </mxGeometry>
        </mxCell>
        <mxCell id="UbfLk0bQusmyIFXjgGm9-1" value="&lt;b&gt;PermitCore&lt;/b&gt;&lt;br&gt;OrderProcessingServiceImpl&lt;br&gt;assignProcessId(PermitOrderView)" style="rounded=0;whiteSpace=wrap;html=1;" vertex="1" parent="1">
          <mxGeometry x="40" y="200" width="210" height="50" as="geometry" />
        </mxCell>
        <mxCell id="UbfLk0bQusmyIFXjgGm9-2" value="&lt;b&gt;PilotCarCore&lt;/b&gt;&lt;br&gt;PilotCarLegServiceImpl&lt;br&gt;assignProcessId(PilotCarLegView)" style="rounded=0;whiteSpace=wrap;html=1;" vertex="1" parent="1">
          <mxGeometry x="40" y="430" width="210" height="50" as="geometry" />
        </mxCell>
        <mxCell id="UbfLk0bQusmyIFXjgGm9-3" value="&lt;b&gt;PilotCarCore&lt;/b&gt;&lt;br&gt;PilotCarOrderProcessingServiceImpl&lt;br&gt;assignProcessId(PilotCarOrderView)" style="rounded=0;whiteSpace=wrap;html=1;" vertex="1" parent="1">
          <mxGeometry x="40" y="350" width="210" height="50" as="geometry" />
        </mxCell>
        <mxCell id="UbfLk0bQusmyIFXjgGm9-21" value="" style="edgeStyle=orthogonalEdgeStyle;rounded=0;orthogonalLoop=1;jettySize=auto;html=1;" edge="1" parent="1" source="UbfLk0bQusmyIFXjgGm9-5" target="UbfLk0bQusmyIFXjgGm9-20">
          <mxGeometry relative="1" as="geometry" />
        </mxCell>
        <mxCell id="UbfLk0bQusmyIFXjgGm9-5" value="&lt;b&gt;RCSProcessService&lt;/b&gt;&lt;br&gt;ProcessLifeCycleServiceImpl&lt;br&gt;initiateProcess(String processName, Map processParams, long userId)" style="rounded=0;whiteSpace=wrap;html=1;" vertex="1" parent="1">
          <mxGeometry x="305" y="270" width="185" height="80" as="geometry" />
        </mxCell>
        <mxCell id="UbfLk0bQusmyIFXjgGm9-9" value="" style="edgeStyle=orthogonalEdgeStyle;rounded=0;orthogonalLoop=1;jettySize=auto;html=1;entryX=0;entryY=0.5;entryDx=0;entryDy=0;" edge="1" parent="1" target="UbfLk0bQusmyIFXjgGm9-5">
          <mxGeometry relative="1" as="geometry">
            <mxPoint x="249.5" y="380" as="sourcePoint" />
            <mxPoint x="304.5" y="445" as="targetPoint" />
          </mxGeometry>
        </mxCell>
        <mxCell id="UbfLk0bQusmyIFXjgGm9-10" value="" style="edgeStyle=orthogonalEdgeStyle;rounded=0;orthogonalLoop=1;jettySize=auto;html=1;exitX=1;exitY=0.5;exitDx=0;exitDy=0;entryX=0;entryY=0.75;entryDx=0;entryDy=0;" edge="1" parent="1" source="UbfLk0bQusmyIFXjgGm9-2" target="UbfLk0bQusmyIFXjgGm9-5">
          <mxGeometry relative="1" as="geometry">
            <mxPoint x="259.5" y="390" as="sourcePoint" />
            <mxPoint x="280" y="320" as="targetPoint" />
          </mxGeometry>
        </mxCell>
        <mxCell id="UbfLk0bQusmyIFXjgGm9-11" value="Low level Design Diagram for custom process Engine&amp;nbsp;" style="text;html=1;align=center;verticalAlign=middle;resizable=0;points=[];autosize=1;strokeColor=none;fillColor=none;fontStyle=1" vertex="1" parent="1">
          <mxGeometry x="30" y="130" width="310" height="30" as="geometry" />
        </mxCell>
        <mxCell id="UbfLk0bQusmyIFXjgGm9-23" value="" style="edgeStyle=orthogonalEdgeStyle;rounded=0;orthogonalLoop=1;jettySize=auto;html=1;" edge="1" parent="1" source="UbfLk0bQusmyIFXjgGm9-20" target="UbfLk0bQusmyIFXjgGm9-22">
          <mxGeometry relative="1" as="geometry" />
        </mxCell>
        <mxCell id="UbfLk0bQusmyIFXjgGm9-25" value="" style="edgeStyle=orthogonalEdgeStyle;rounded=0;orthogonalLoop=1;jettySize=auto;html=1;" edge="1" parent="1" source="UbfLk0bQusmyIFXjgGm9-20" target="UbfLk0bQusmyIFXjgGm9-24">
          <mxGeometry relative="1" as="geometry" />
        </mxCell>
        <mxCell id="UbfLk0bQusmyIFXjgGm9-20" value="&lt;b&gt;RCSProcessService&lt;/b&gt;&lt;br&gt;ProcessEngine" style="rounded=0;whiteSpace=wrap;html=1;" vertex="1" parent="1">
          <mxGeometry x="520" y="270" width="185" height="80" as="geometry" />
        </mxCell>
        <mxCell id="UbfLk0bQusmyIFXjgGm9-22" value="XML Parser to parse&amp;nbsp; processdefinition.xml" style="rounded=0;whiteSpace=wrap;html=1;" vertex="1" parent="1">
          <mxGeometry x="553" y="180" width="120" height="60" as="geometry" />
        </mxCell>
        <mxCell id="UbfLk0bQusmyIFXjgGm9-27" value="" style="edgeStyle=orthogonalEdgeStyle;rounded=0;orthogonalLoop=1;jettySize=auto;html=1;" edge="1" parent="1" source="UbfLk0bQusmyIFXjgGm9-24" target="UbfLk0bQusmyIFXjgGm9-26">
          <mxGeometry relative="1" as="geometry" />
        </mxCell>
        <mxCell id="UbfLk0bQusmyIFXjgGm9-24" value="Program to make transition to different nodes" style="rounded=0;whiteSpace=wrap;html=1;" vertex="1" parent="1">
          <mxGeometry x="552.5" y="400" width="120" height="60" as="geometry" />
        </mxCell>
        <mxCell id="UbfLk0bQusmyIFXjgGm9-29" value="" style="edgeStyle=orthogonalEdgeStyle;rounded=0;orthogonalLoop=1;jettySize=auto;html=1;" edge="1" parent="1" source="UbfLk0bQusmyIFXjgGm9-26" target="UbfLk0bQusmyIFXjgGm9-28">
          <mxGeometry relative="1" as="geometry" />
        </mxCell>
        <mxCell id="UbfLk0bQusmyIFXjgGm9-26" value="Call to ProcessActionHandlers and ProcessDecisionHandlers" style="rounded=0;whiteSpace=wrap;html=1;" vertex="1" parent="1">
          <mxGeometry x="730" y="400" width="140" height="60" as="geometry" />
        </mxCell>
        <mxCell id="UbfLk0bQusmyIFXjgGm9-28" value="Permits DB" style="shape=cylinder3;whiteSpace=wrap;html=1;boundedLbl=1;backgroundOutline=1;size=15;" vertex="1" parent="1">
          <mxGeometry x="770" y="260" width="60" height="80" as="geometry" />
        </mxCell>
      </root>
    </mxGraphModel>
  </diagram>
</mxfile>
